<svg width="104" height="108" viewBox="0 0 104 108" fill="none" xmlns="http://www.w3.org/2000/svg">
<rect x="20" y="4" width="64" height="64" rx="16" fill="#4461A7"/>
<g filter="url(#filter0_ddd_3_442)">
<rect x="20" y="4" width="64" height="64" rx="16" fill="white" fill-opacity="0.01" shape-rendering="crispEdges"/>
</g>
<path d="M47.3125 36C49.6094 36 51.6719 37.6406 51.9531 39.9375C52.2812 42.6562 50.1719 45 47.4531 45C45.2969 45 43.4688 43.4531 43.0469 41.3906C42.9531 40.9219 43.3281 40.5 43.7969 40.5H45.3438C45.6719 40.5 45.9531 40.6875 46.0469 41.0156C46.2344 41.5781 46.7969 42 47.5 42C48.3906 42 49.0938 41.2031 48.9531 40.2656C48.8594 39.5156 48.1562 39 47.4062 39H40.75C40.3281 39 40 38.6719 40 38.25V36.75C40 36.375 40.3281 36 40.75 36H47.3125ZM40.75 34.5C40.3281 34.5 40 34.1719 40 33.75V32.25C40 31.875 40.3281 31.5 40.75 31.5H56.4062C57.1562 31.5 57.8594 31.0312 57.9531 30.2812C58.0938 29.3438 57.3906 28.5 56.5 28.5C55.7969 28.5 55.2344 28.9688 55.0469 29.5312C54.9531 29.8594 54.6719 30 54.3438 30H52.7969C52.3281 30 51.9531 29.625 52.0469 29.1562C52.5156 26.8125 54.8594 25.0781 57.4375 25.6406C59.125 25.9688 60.5312 27.375 60.8594 29.0625C61.4688 31.9688 59.2656 34.5 56.5 34.5H40.75ZM58.75 36C62.0312 36 64.6562 39.0938 63.8125 42.5156C63.3906 44.4375 61.7969 45.9844 59.875 46.4062C57.1094 46.9688 54.625 45.375 53.7812 43.0312C53.6406 42.5156 54.0156 42 54.5312 42H56.0781C56.3594 42 56.6406 42.1406 56.7812 42.375C57.1562 43.0781 57.9062 43.5 58.75 43.5C59.9688 43.5 61 42.5156 61 41.25C61 40.0312 59.9688 39 58.75 39H53.2656C52.9375 37.8281 52.3281 36.7969 51.3906 36H58.75Z" fill="white"/>
<path d="M27.8521 88V80.7273H30.764C31.299 80.7273 31.7453 80.8066 32.1028 80.9652C32.4603 81.1238 32.729 81.344 32.9089 81.6257C33.0888 81.9051 33.1788 82.227 33.1788 82.5916C33.1788 82.8757 33.122 83.1255 33.0083 83.3409C32.8947 83.554 32.7384 83.7292 32.5396 83.8665C32.3431 84.0014 32.1182 84.0973 31.8649 84.1541V84.2251C32.1418 84.237 32.4011 84.3151 32.6426 84.4595C32.8864 84.6039 33.0841 84.8063 33.2356 85.0668C33.3871 85.3248 33.4629 85.6326 33.4629 85.9901C33.4629 86.3759 33.367 86.7204 33.1752 87.0234C32.9858 87.3241 32.7053 87.562 32.3336 87.7372C31.9619 87.9124 31.5038 88 30.9593 88H27.8521ZM29.3897 86.7429H30.6433C31.0718 86.7429 31.3843 86.6612 31.5808 86.4979C31.7773 86.3321 31.8755 86.112 31.8755 85.8374C31.8755 85.6361 31.827 85.4586 31.7299 85.3047C31.6328 85.1508 31.4944 85.0301 31.3144 84.9425C31.1369 84.8549 30.925 84.8111 30.6788 84.8111H29.3897V86.7429ZM29.3897 83.7706H30.5296C30.7403 83.7706 30.9274 83.7339 31.0907 83.6605C31.2564 83.5848 31.3866 83.4782 31.4813 83.3409C31.5784 83.2036 31.6269 83.0391 31.6269 82.8473C31.6269 82.5845 31.5334 82.3726 31.3464 82.2116C31.1617 82.0507 30.8989 81.9702 30.558 81.9702H29.3897V83.7706ZM34.9634 88V80.7273H37.8327C38.382 80.7273 38.8507 80.8255 39.239 81.022C39.6296 81.2161 39.9267 81.492 40.1303 81.8494C40.3363 82.2045 40.4393 82.6224 40.4393 83.103C40.4393 83.5859 40.3351 84.0014 40.1268 84.3494C39.9184 84.6951 39.6166 84.9602 39.2212 85.1449C38.8282 85.3295 38.3524 85.4219 37.7937 85.4219H35.8725V84.1861H37.5451C37.8386 84.1861 38.0825 84.1458 38.2766 84.0653C38.4707 83.9848 38.6152 83.8641 38.7099 83.7031C38.8069 83.5421 38.8554 83.3421 38.8554 83.103C38.8554 82.8615 38.8069 82.6579 38.7099 82.4922C38.6152 82.3265 38.4696 82.201 38.2731 82.1158C38.0789 82.0282 37.8339 81.9844 37.538 81.9844H36.501V88H34.9634ZM38.891 84.6903L40.6985 88H39.001L37.2326 84.6903H38.891ZM42.0259 88V80.7273H46.9265V81.995H43.5635V83.728H46.6743V84.9957H43.5635V86.7322H46.9407V88H42.0259ZM49.9025 88H48.2548L50.7654 80.7273H52.747L55.2541 88H53.6063L51.7846 82.3892H51.7278L49.9025 88ZM49.7995 85.1413H53.6916V86.3416H49.7995V85.1413ZM55.4638 81.995V80.7273H61.4368V81.995H59.2102V88H57.6903V81.995H55.4638ZM62.9204 88V80.7273H64.4581V83.728H67.5795V80.7273H69.1136V88H67.5795V84.9957H64.4581V88H62.9204ZM70.8814 88V80.7273H75.7819V81.995H72.419V83.728H75.5298V84.9957H72.419V86.7322H75.7961V88H70.8814Z" fill="#94A3B8"/>
<defs>
<filter id="filter0_ddd_3_442" x="0" y="0" width="104" height="108" filterUnits="userSpaceOnUse" color-interpolation-filters="sRGB">
<feFlood flood-opacity="0" result="BackgroundImageFix"/>
<feColorMatrix in="SourceAlpha" type="matrix" values="0 0 0 0 0 0 0 0 0 0 0 0 0 0 0 0 0 0 127 0" result="hardAlpha"/>
<feMorphology radius="6" operator="erode" in="SourceAlpha" result="effect1_dropShadow_3_442"/>
<feOffset dy="8"/>
<feGaussianBlur stdDeviation="5"/>
<feComposite in2="hardAlpha" operator="out"/>
<feColorMatrix type="matrix" values="0 0 0 0 0.0588235 0 0 0 0 0.0901961 0 0 0 0 0.164706 0 0 0 0.2 0"/>
<feBlend mode="normal" in2="BackgroundImageFix" result="effect1_dropShadow_3_442"/>
<feColorMatrix in="SourceAlpha" type="matrix" values="0 0 0 0 0 0 0 0 0 0 0 0 0 0 0 0 0 0 127 0" result="hardAlpha"/>
<feMorphology radius="5" operator="erode" in="SourceAlpha" result="effect2_dropShadow_3_442"/>
<feOffset dy="20"/>
<feGaussianBlur stdDeviation="12.5"/>
<feComposite in2="hardAlpha" operator="out"/>
<feColorMatrix type="matrix" values="0 0 0 0 0.0588235 0 0 0 0 0.0901961 0 0 0 0 0.164706 0 0 0 0.2 0"/>
<feBlend mode="normal" in2="effect1_dropShadow_3_442" result="effect2_dropShadow_3_442"/>
<feColorMatrix in="SourceAlpha" type="matrix" values="0 0 0 0 0 0 0 0 0 0 0 0 0 0 0 0 0 0 127 0" result="hardAlpha"/>
<feMorphology radius="4" operator="dilate" in="SourceAlpha" result="effect3_dropShadow_3_442"/>
<feOffset/>
<feComposite in2="hardAlpha" operator="out"/>
<feColorMatrix type="matrix" values="0 0 0 0 1 0 0 0 0 1 0 0 0 0 1 0 0 0 1 0"/>
<feBlend mode="normal" in2="effect2_dropShadow_3_442" result="effect3_dropShadow_3_442"/>
<feBlend mode="normal" in="SourceGraphic" in2="effect3_dropShadow_3_442" result="shape"/>
</filter>
</defs>
</svg>
