<svg width="104" height="108" viewBox="0 0 104 108" fill="none" xmlns="http://www.w3.org/2000/svg">
<rect x="20" y="4" width="64" height="64" rx="16" fill="#4461A7"/>
<g filter="url(#filter0_ddd_3_443)">
<rect x="20" y="4" width="64" height="64" rx="16" fill="white" fill-opacity="0.01" shape-rendering="crispEdges"/>
</g>
<path d="M47.3125 36C49.6094 36 51.6719 37.6406 51.9531 39.9375C52.2812 42.6562 50.1719 45 47.4531 45C45.2969 45 43.4688 43.4531 43.0469 41.3906C42.9531 40.9219 43.3281 40.5 43.7969 40.5H45.3438C45.6719 40.5 45.9531 40.6875 46.0469 41.0156C46.2344 41.5781 46.7969 42 47.5 42C48.3906 42 49.0938 41.2031 48.9531 40.2656C48.8594 39.5156 48.1562 39 47.4062 39H40.75C40.3281 39 40 38.6719 40 38.25V36.75C40 36.375 40.3281 36 40.75 36H47.3125ZM40.75 34.5C40.3281 34.5 40 34.1719 40 33.75V32.25C40 31.875 40.3281 31.5 40.75 31.5H56.4062C57.1562 31.5 57.8594 31.0312 57.9531 30.2812C58.0938 29.3438 57.3906 28.5 56.5 28.5C55.7969 28.5 55.2344 28.9688 55.0469 29.5312C54.9531 29.8594 54.6719 30 54.3438 30H52.7969C52.3281 30 51.9531 29.625 52.0469 29.1562C52.5156 26.8125 54.8594 25.0781 57.4375 25.6406C59.125 25.9688 60.5312 27.375 60.8594 29.0625C61.4688 31.9688 59.2656 34.5 56.5 34.5H40.75ZM58.75 36C62.0312 36 64.6562 39.0938 63.8125 42.5156C63.3906 44.4375 61.7969 45.9844 59.875 46.4062C57.1094 46.9688 54.625 45.375 53.7812 43.0312C53.6406 42.5156 54.0156 42 54.5312 42H56.0781C56.3594 42 56.6406 42.1406 56.7812 42.375C57.1562 43.0781 57.9062 43.5 58.75 43.5C59.9688 43.5 61 42.5156 61 41.25C61 40.0312 59.9688 39 58.75 39H53.2656C52.9375 37.8281 52.3281 36.7969 51.3906 36H58.75Z" fill="white"/>
<defs>
<filter id="filter0_ddd_3_443" x="0" y="0" width="104" height="108" filterUnits="userSpaceOnUse" color-interpolation-filters="sRGB">
<feFlood flood-opacity="0" result="BackgroundImageFix"/>
<feColorMatrix in="SourceAlpha" type="matrix" values="0 0 0 0 0 0 0 0 0 0 0 0 0 0 0 0 0 0 127 0" result="hardAlpha"/>
<feMorphology radius="6" operator="erode" in="SourceAlpha" result="effect1_dropShadow_3_443"/>
<feOffset dy="8"/>
<feGaussianBlur stdDeviation="5"/>
<feComposite in2="hardAlpha" operator="out"/>
<feColorMatrix type="matrix" values="0 0 0 0 0.0588235 0 0 0 0 0.0901961 0 0 0 0 0.164706 0 0 0 0.2 0"/>
<feBlend mode="normal" in2="BackgroundImageFix" result="effect1_dropShadow_3_443"/>
<feColorMatrix in="SourceAlpha" type="matrix" values="0 0 0 0 0 0 0 0 0 0 0 0 0 0 0 0 0 0 127 0" result="hardAlpha"/>
<feMorphology radius="5" operator="erode" in="SourceAlpha" result="effect2_dropShadow_3_443"/>
<feOffset dy="20"/>
<feGaussianBlur stdDeviation="12.5"/>
<feComposite in2="hardAlpha" operator="out"/>
<feColorMatrix type="matrix" values="0 0 0 0 0.0588235 0 0 0 0 0.0901961 0 0 0 0 0.164706 0 0 0 0.2 0"/>
<feBlend mode="normal" in2="effect1_dropShadow_3_443" result="effect2_dropShadow_3_443"/>
<feColorMatrix in="SourceAlpha" type="matrix" values="0 0 0 0 0 0 0 0 0 0 0 0 0 0 0 0 0 0 127 0" result="hardAlpha"/>
<feMorphology radius="4" operator="dilate" in="SourceAlpha" result="effect3_dropShadow_3_443"/>
<feOffset/>
<feComposite in2="hardAlpha" operator="out"/>
<feColorMatrix type="matrix" values="0 0 0 0 1 0 0 0 0 1 0 0 0 0 1 0 0 0 1 0"/>
<feBlend mode="normal" in2="effect2_dropShadow_3_443" result="effect3_dropShadow_3_443"/>
<feBlend mode="normal" in="SourceGraphic" in2="effect3_dropShadow_3_443" result="shape"/>
</filter>
</defs>
</svg>
