<svg width="22" height="21" viewBox="0 0 22 21" fill="none" xmlns="http://www.w3.org/2000/svg">
<path d="M20.7812 11.25C21.1719 11.25 21.4844 11.6016 21.4062 11.9531C21.1328 14.1406 20.0781 16.0547 18.5547 17.4609C18.3203 17.6953 17.9297 17.6953 17.6953 17.4609L11.5234 11.25H20.7812ZM20.1562 8.75C20.1953 9.10156 19.8828 9.375 19.5312 9.375H10.8203V0.664062C10.8203 0.3125 11.0938 0 11.4453 0.0390625C16.1328 0.351562 19.8438 4.0625 20.1562 8.75ZM8.94531 11.25L15 17.3438C15.2734 17.6172 15.2734 18.0859 14.9609 18.2812C13.4766 19.375 11.6406 20 9.6875 20C4.64844 20.0781 0.351562 15.9766 0.195312 10.9766C0 6.09375 3.55469 2.03125 8.24219 1.36719C8.59375 1.32812 8.94531 1.64062 8.94531 1.99219V11.25Z" fill="#CBD5E1"/>
</svg>
