<svg width="20" height="20" viewBox="0 0 20 20" fill="none" xmlns="http://www.w3.org/2000/svg">
<path d="M9.6875 0C15.0391 0 19.375 4.33594 19.375 9.6875C19.375 15.0391 15.0391 19.375 9.6875 19.375C4.33594 19.375 0 15.0391 0 9.6875C0 4.33594 4.33594 0 9.6875 0ZM9.6875 3.75C7.77344 3.75 6.25 5.3125 6.25 7.1875C6.25 9.10156 7.77344 10.625 9.6875 10.625C11.5625 10.625 13.125 9.10156 13.125 7.1875C13.125 5.3125 11.5625 3.75 9.6875 3.75ZM9.6875 17.1875C11.9531 17.1875 14.0234 16.1719 15.3906 14.5312C14.6484 13.1641 13.2031 12.1875 11.5625 12.1875C11.4453 12.1875 11.3672 12.2266 11.25 12.2656C10.7812 12.4219 10.2344 12.5 9.6875 12.5C9.10156 12.5 8.59375 12.4219 8.08594 12.2656C7.96875 12.2266 7.89062 12.1875 7.8125 12.1875C6.13281 12.1875 4.6875 13.1641 3.94531 14.5312C5.3125 16.1719 7.38281 17.1875 9.6875 17.1875Z" fill="#CBD5E1"/>
</svg>
