<svg width="25" height="22" viewBox="0 0 25 22" fill="none" xmlns="http://www.w3.org/2000/svg">
<path d="M7.3125 10.9219C9.60938 10.9219 11.6719 12.5625 11.9531 14.8594C12.2812 17.5781 10.1719 19.9219 7.45312 19.9219C5.29688 19.9219 3.46875 18.375 3.04688 16.3125C2.95312 15.8438 3.32812 15.4219 3.79688 15.4219H5.34375C5.67188 15.4219 5.95312 15.6094 6.04688 15.9375C6.23438 16.5 6.79688 16.9219 7.5 16.9219C8.39062 16.9219 9.09375 16.125 8.95312 15.1875C8.85938 14.4375 8.15625 13.9219 7.40625 13.9219H0.75C0.328125 13.9219 0 13.5938 0 13.1719V11.6719C0 11.2969 0.328125 10.9219 0.75 10.9219H7.3125ZM0.75 9.42188C0.328125 9.42188 0 9.09375 0 8.67188V7.17188C0 6.79688 0.328125 6.42188 0.75 6.42188H16.4062C17.1562 6.42188 17.8594 5.95312 17.9531 5.20312C18.0938 4.26562 17.3906 3.42188 16.5 3.42188C15.7969 3.42188 15.2344 3.89062 15.0469 4.45312C14.9531 4.78125 14.6719 4.92188 14.3438 4.92188H12.7969C12.3281 4.92188 11.9531 4.54688 12.0469 4.07812C12.5156 1.73438 14.8594 0 17.4375 0.5625C19.125 0.890625 20.5312 2.29688 20.8594 3.98438C21.4688 6.89062 19.2656 9.42188 16.5 9.42188H0.75ZM18.75 10.9219C22.0312 10.9219 24.6562 14.0156 23.8125 17.4375C23.3906 19.3594 21.7969 20.9062 19.875 21.3281C17.1094 21.8906 14.625 20.2969 13.7812 17.9531C13.6406 17.4375 14.0156 16.9219 14.5312 16.9219H16.0781C16.3594 16.9219 16.6406 17.0625 16.7812 17.2969C17.1562 18 17.9062 18.4219 18.75 18.4219C19.9688 18.4219 21 17.4375 21 16.1719C21 14.9531 19.9688 13.9219 18.75 13.9219H13.2656C12.9375 12.75 12.3281 11.7188 11.3906 10.9219H18.75Z" fill="white"/>
</svg>
