<svg width="21" height="28" viewBox="0 0 21 28" fill="none" xmlns="http://www.w3.org/2000/svg">
<path d="M10.0391 5.75C15.5469 5.75 20.0391 9.42188 20.0391 13.875C20.0391 18.3672 15.5469 22 10.0391 22C8.51562 22 7.10938 21.7266 5.82031 21.2578C4.88281 22.0391 2.92969 23.25 0.351562 23.25C0.195312 23.25 0.117188 23.2109 0.0390625 23.0938C0 22.9766 0.0390625 22.8203 0.117188 22.7422C0.117188 22.7031 1.75781 20.9844 2.26562 18.9922C0.859375 17.5859 0.0390625 15.8281 0.0390625 13.875C0.0390625 9.42188 4.49219 5.75 10.0391 5.75ZM5.03906 15.125C5.70312 15.125 6.28906 14.5781 6.28906 13.875C6.28906 13.2109 5.70312 12.625 5.03906 12.625C4.33594 12.625 3.78906 13.2109 3.78906 13.875C3.78906 14.5781 4.33594 15.125 5.03906 15.125ZM10.0391 15.125C10.7031 15.125 11.2891 14.5781 11.2891 13.875C11.2891 13.2109 10.7031 12.625 10.0391 12.625C9.33594 12.625 8.78906 13.2109 8.78906 13.875C8.78906 14.5781 9.33594 15.125 10.0391 15.125ZM15.0391 15.125C15.7031 15.125 16.2891 14.5781 16.2891 13.875C16.2891 13.2109 15.7031 12.625 15.0391 12.625C14.3359 12.625 13.7891 13.2109 13.7891 13.875C13.7891 14.5781 14.3359 15.125 15.0391 15.125Z" fill="#CBD5E1"/>
</svg>
